<svg xmlns="http://www.w3.org/2000/svg" width="152" height="152" viewBox="0 0 512 512">
    <defs>
      <linearGradient id="bg" x1="0%" y1="0%" x2="100%" y2="100%">
        <stop offset="0%" style="stop-color:#0ea5e9"/>
        <stop offset="100%" style="stop-color:#3b82f6"/>
      </linearGradient>
    </defs>
    <circle cx="256" cy="256" r="240" fill="url(#bg)"/>
    <circle cx="180" cy="150" r="12" fill="#ffffff" opacity="0.8"/>
    <circle cx="220" cy="120" r="8" fill="#ffffff" opacity="0.6"/>
    <circle cx="350" cy="140" r="10" fill="#ffffff" opacity="0.8"/>
    <g transform="translate(256,280) scale(2.5) translate(-32,-24)">
      <path d="M8 18c0 1.1.9 2 2 2h2c0-1.1.9-2 2-2s2 .9 2 2h8c0-1.1.9-2 2-2s2 .9 2 2h2c1.1 0 2-.9 2-2V8H8v10z" fill="#ffffff"/>
      <path d="M12 6h16l-2-4H14l-2 4z" fill="#ffffff"/>
      <circle cx="14" cy="18" r="1.5" fill="#64748b"/>
      <circle cx="26" cy="18" r="1.5" fill="#64748b"/>
    </g>
  </svg>
